<svg data-v-423bf9ae="" xmlns="http://www.w3.org/2000/svg" viewBox="0 0 455 90" class="iconLeft"><!----><!----><!----><g data-v-423bf9ae="" id="c1af758a-e366-4b54-ab49-cef4c8e406d0" fill="white" transform="matrix(4.240282799826114,0,0,4.240282799826114,186.25079107669413,1.473498102760928)"><path d="M7.33 11.68L5.97 11.68L5.97 13.57L5.97 13.57Q5.97 13.82 5.93 14.00L5.93 14.00L5.93 14.00Q5.90 14.18 5.79 14.29L5.79 14.29L5.79 14.29Q5.68 14.41 5.48 14.47L5.48 14.47L5.48 14.47Q5.28 14.53 4.94 14.53L4.94 14.53L1.98 14.53L1.98 14.53Q1.65 14.53 1.44 14.46L1.44 14.46L1.44 14.46Q1.24 14.40 1.12 14.29L1.12 14.29L1.12 14.29Q1.00 14.17 0.96 13.99L0.96 13.99L0.96 13.99Q0.92 13.82 0.92 13.58L0.92 13.58L0.92 11.68L0.36 11.68L0.36 11.68Q0.21 11.68 0.21 11.53L0.21 11.53L0.21 10.99L0.21 10.99Q0.21 10.84 0.36 10.84L0.36 10.84L0.92 10.84L0.92 6.71L0.92 6.71Q0.92 5.97 1.08 5.43L1.08 5.43L1.08 5.43Q1.23 4.88 1.49 4.49L1.49 4.49L1.49 4.49Q1.76 4.09 2.11 3.84L2.11 3.84L2.11 3.84Q2.47 3.59 2.88 3.44L2.88 3.44L2.88 3.44Q3.29 3.29 3.73 3.24L3.73 3.24L3.73 3.24Q4.17 3.19 4.61 3.19L4.61 3.19L4.61 3.19Q4.98 3.19 5.40 3.23L5.40 3.23L5.40 3.23Q5.81 3.28 6.20 3.36L6.20 3.36L6.20 3.36Q6.58 3.44 6.92 3.54L6.92 3.54L6.92 3.54Q7.25 3.65 7.49 3.76L7.49 3.76L7.49 3.76Q7.54 3.79 7.60 3.84L7.60 3.84L7.60 3.84Q7.66 3.90 7.66 4.03L7.66 4.03L7.66 4.51L7.66 4.51Q7.66 4.60 7.63 4.62L7.63 4.62L7.63 4.62Q7.59 4.63 7.57 4.63L7.57 4.63L7.57 4.63Q7.48 4.63 7.38 4.59L7.38 4.59L7.38 4.59Q7.27 4.55 7.07 4.55L7.07 4.55L7.07 4.55Q6.84 4.55 6.64 4.65L6.64 4.65L6.64 4.65Q6.44 4.74 6.29 4.97L6.29 4.97L6.29 4.97Q6.14 5.20 6.05 5.60L6.05 5.60L6.05 5.60Q5.97 6.00 5.97 6.60L5.97 6.60L5.97 10.84L7.33 10.84L7.33 10.84Q7.48 10.84 7.48 10.99L7.48 10.99L7.48 11.53L7.48 11.53Q7.48 11.68 7.33 11.68L7.33 11.68ZM8.29 13.58L8.29 4.28L8.29 4.28Q8.29 4.05 8.33 3.87L8.33 3.87L8.33 3.87Q8.37 3.68 8.49 3.57L8.49 3.57L8.49 3.57Q8.61 3.45 8.81 3.39L8.81 3.39L8.81 3.39Q9.02 3.33 9.34 3.33L9.34 3.33L12.34 3.33L12.34 3.33Q12.65 3.33 12.84 3.39L12.84 3.39L12.84 3.39Q13.04 3.45 13.15 3.56L13.15 3.56L13.15 3.56Q13.25 3.68 13.29 3.86L13.29 3.86L13.29 3.86Q13.33 4.03 13.33 4.27L13.33 4.27L13.33 13.59L13.33 13.59Q13.33 13.82 13.29 14.00L13.29 14.00L13.29 14.00Q13.25 14.17 13.14 14.29L13.14 14.29L13.14 14.29Q13.03 14.41 12.83 14.47L12.83 14.47L12.83 14.47Q12.64 14.53 12.33 14.53L12.33 14.53L9.34 14.53L9.34 14.53Q9.02 14.53 8.81 14.46L8.81 14.46L8.81 14.46Q8.61 14.40 8.49 14.29L8.49 14.29L8.49 14.29Q8.37 14.17 8.33 13.99L8.33 13.99L8.33 13.99Q8.29 13.82 8.29 13.58L8.29 13.58ZM20.78 13.39L20.78 13.39L20.78 13.39Q20.97 13.39 21.12 13.34L21.12 13.34L21.12 13.34Q21.27 13.29 21.39 13.23L21.39 13.23L21.39 13.23Q21.51 13.17 21.58 13.11L21.58 13.11L21.58 13.11Q21.66 13.06 21.70 13.06L21.70 13.06L21.70 13.06Q21.77 13.06 21.79 13.08L21.79 13.08L21.79 13.08Q21.81 13.10 21.85 13.16L21.85 13.16L22.09 13.53L22.09 13.53Q22.12 13.58 22.12 13.62L22.12 13.62L22.12 13.62Q22.12 13.67 22.09 13.70L22.09 13.70L22.09 13.70Q22.07 13.73 22.04 13.75L22.04 13.75L22.04 13.75Q21.81 13.90 21.49 14.09L21.49 14.09L21.49 14.09Q21.16 14.27 20.72 14.42L20.72 14.42L20.72 14.42Q20.29 14.57 19.74 14.67L19.74 14.67L19.74 14.67Q19.20 14.77 18.54 14.77L18.54 14.77L18.54 14.77Q18.03 14.77 17.51 14.68L17.51 14.68L17.51 14.68Q17.00 14.60 16.53 14.42L16.53 14.42L16.53 14.42Q16.06 14.25 15.66 13.96L15.66 13.96L15.66 13.96Q15.26 13.67 14.96 13.25L14.96 13.25L14.96 13.25Q14.66 12.84 14.49 12.29L14.49 12.29L14.49 12.29Q14.32 11.74 14.32 11.03L14.32 11.03L14.32 11.03Q14.32 10.33 14.49 9.78L14.49 9.78L14.49 9.78Q14.66 9.23 14.96 8.81L14.96 8.81L14.96 8.81Q15.26 8.39 15.66 8.10L15.66 8.10L15.66 8.10Q16.06 7.81 16.53 7.63L16.53 7.63L16.53 7.63Q17.00 7.45 17.51 7.37L17.51 7.37L17.51 7.37Q18.03 7.29 18.54 7.29L18.54 7.29L18.54 7.29Q19.39 7.29 20.13 7.48L20.13 7.48L20.13 7.48Q20.86 7.67 21.40 8.11L21.40 8.11L21.40 8.11Q21.94 8.54 22.25 9.26L22.25 9.26L22.25 9.26Q22.56 9.97 22.56 11.00L22.56 11.00L22.56 11.38L22.56 11.38Q22.56 11.50 22.50 11.57L22.50 11.57L22.50 11.57Q22.44 11.64 22.29 11.64L22.29 11.64L19.46 11.64L19.46 11.64Q19.52 12.15 19.66 12.49L19.66 12.49L19.66 12.49Q19.80 12.82 19.98 13.03L19.98 13.03L19.98 13.03Q20.16 13.23 20.37 13.31L20.37 13.31L20.37 13.31Q20.58 13.39 20.78 13.39ZM19.43 10.80L21.59 10.80L21.59 10.80Q21.59 10.25 21.50 9.90L21.50 9.90L21.50 9.90Q21.42 9.54 21.27 9.32L21.27 9.32L21.27 9.32Q21.13 9.11 20.94 9.02L20.94 9.02L20.94 9.02Q20.74 8.93 20.53 8.93L20.53 8.93L20.53 8.93Q20.37 8.93 20.19 8.99L20.19 8.99L20.19 8.99Q20.00 9.05 19.84 9.25L19.84 9.25L19.84 9.25Q19.68 9.45 19.57 9.82L19.57 9.82L19.57 9.82Q19.46 10.19 19.43 10.80L19.43 10.80ZM26.63 14.12L25.61 12.36L24.68 13.97L24.68 13.97Q24.62 14.08 24.56 14.18L24.56 14.18L24.56 14.18Q24.50 14.28 24.43 14.36L24.43 14.36L24.43 14.36Q24.36 14.43 24.26 14.48L24.26 14.48L24.26 14.48Q24.17 14.53 24.04 14.53L24.04 14.53L23.25 14.53L23.25 14.53Q23.15 14.53 23.08 14.48L23.08 14.48L23.08 14.48Q23.02 14.42 23.02 14.32L23.02 14.32L23.02 14.32Q23.02 14.26 23.04 14.18L23.04 14.18L23.04 14.18Q23.06 14.10 23.13 14.01L23.13 14.01L24.89 11.12L23.14 8.09L23.14 8.09Q23.06 7.96 23.06 7.84L23.06 7.84L23.06 7.84Q23.06 7.53 23.47 7.53L23.47 7.53L27.41 7.53L27.41 7.53Q27.75 7.53 27.89 7.60L27.89 7.60L27.89 7.60Q28.02 7.68 28.10 7.81L28.10 7.81L28.98 9.31L29.69 8.09L29.69 8.09Q29.75 7.98 29.81 7.88L29.81 7.88L29.81 7.88Q29.87 7.77 29.94 7.70L29.94 7.70L29.94 7.70Q30.01 7.62 30.11 7.57L30.11 7.57L30.11 7.57Q30.20 7.53 30.34 7.53L30.34 7.53L31.12 7.53L31.12 7.53Q31.23 7.53 31.29 7.58L31.29 7.58L31.29 7.58Q31.36 7.63 31.36 7.73L31.36 7.73L31.36 7.73Q31.36 7.87 31.25 8.05L31.25 8.05L29.71 10.55L31.65 13.88L31.65 13.88Q31.71 13.97 31.74 14.05L31.74 14.05L31.74 14.05Q31.78 14.14 31.78 14.21L31.78 14.21L31.78 14.21Q31.78 14.33 31.74 14.39L31.74 14.39L31.74 14.39Q31.70 14.46 31.63 14.49L31.63 14.49L31.63 14.49Q31.56 14.52 31.48 14.52L31.48 14.52L31.48 14.52Q31.40 14.53 31.32 14.53L31.32 14.53L27.31 14.53L27.31 14.53Q27.14 14.53 27.02 14.48L27.02 14.48L27.02 14.48Q26.90 14.44 26.82 14.38L26.82 14.38L26.82 14.38Q26.74 14.31 26.70 14.25L26.70 14.25L26.70 14.25Q26.65 14.18 26.63 14.12L26.63 14.12ZM43.09 5.75L43.09 5.75L43.09 5.75Q42.94 5.75 42.77 5.80L42.77 5.80L42.77 5.80Q42.60 5.84 42.44 5.98L42.44 5.98L42.44 5.98Q42.27 6.12 42.12 6.36L42.12 6.36L42.12 6.36Q41.97 6.60 41.85 7L41.85 7L41.85 7Q41.74 7.40 41.67 7.96L41.67 7.96L41.67 7.96Q41.60 8.52 41.60 9.30L41.60 9.30L41.60 9.30Q41.60 10.08 41.67 10.65L41.67 10.65L41.67 10.65Q41.74 11.22 41.85 11.63L41.85 11.63L41.85 11.63Q41.97 12.04 42.12 12.31L42.12 12.31L42.12 12.31Q42.27 12.57 42.44 12.72L42.44 12.72L42.44 12.72Q42.60 12.87 42.77 12.93L42.77 12.93L42.77 12.93Q42.94 12.99 43.09 12.99L43.09 12.99L43.09 12.99Q43.29 12.99 43.47 12.90L43.47 12.90L43.47 10.28L43.47 10.28Q43.47 10.17 43.52 10.07L43.52 10.07L43.52 10.07Q43.57 9.96 43.74 9.96L43.74 9.96L44.46 9.96L44.46 9.96Q44.52 9.96 44.58 9.97L44.58 9.97L44.58 9.97Q44.65 9.97 44.69 10.00L44.69 10.00L44.69 10.00Q44.74 10.04 44.77 10.10L44.77 10.10L44.77 10.10Q44.80 10.17 44.80 10.28L44.80 10.28L44.80 14.21L44.80 14.21Q44.80 14.32 44.77 14.39L44.77 14.39L44.77 14.39Q44.74 14.45 44.69 14.48L44.69 14.48L44.69 14.48Q44.65 14.51 44.58 14.52L44.58 14.52L44.58 14.52Q44.52 14.53 44.46 14.53L44.46 14.53L43.74 14.53L43.74 14.53Q43.65 14.53 43.60 14.50L43.60 14.50L43.60 14.50Q43.55 14.47 43.52 14.42L43.52 14.42L43.52 14.42Q43.49 14.38 43.48 14.32L43.48 14.32L43.48 14.32Q43.47 14.26 43.47 14.21L43.47 14.21L43.47 14.01L43.47 14.01Q43.25 14.16 42.98 14.31L42.98 14.31L42.98 14.31Q42.72 14.45 42.40 14.56L42.40 14.56L42.40 14.56Q42.08 14.67 41.71 14.73L41.71 14.73L41.71 14.73Q41.34 14.79 40.92 14.79L40.92 14.79L40.92 14.79Q40.42 14.79 39.89 14.70L39.89 14.70L39.89 14.70Q39.37 14.62 38.87 14.39L38.87 14.39L38.87 14.39Q38.38 14.16 37.93 13.76L37.93 13.76L37.93 13.76Q37.49 13.36 37.16 12.76L37.16 12.76L37.16 12.76Q36.83 12.15 36.63 11.30L36.63 11.30L36.63 11.30Q36.44 10.45 36.44 9.30L36.44 9.30L36.44 9.30Q36.44 8.33 36.63 7.59L36.63 7.59L36.63 7.59Q36.83 6.85 37.16 6.30L37.16 6.30L37.16 6.30Q37.50 5.76 37.94 5.39L37.94 5.39L37.94 5.39Q38.39 5.02 38.90 4.80L38.90 4.80L38.90 4.80Q39.40 4.57 39.94 4.48L39.94 4.48L39.94 4.48Q40.48 4.39 40.99 4.39L40.99 4.39L40.99 4.39Q41.55 4.39 42.05 4.48L42.05 4.48L42.05 4.48Q42.56 4.57 42.98 4.70L42.98 4.70L42.98 4.70Q43.40 4.84 43.73 5.01L43.73 5.01L43.73 5.01Q44.06 5.18 44.27 5.35L44.27 5.35L44.27 5.35Q44.29 5.37 44.32 5.39L44.32 5.39L44.32 5.39Q44.34 5.41 44.34 5.45L44.34 5.45L44.34 5.45Q44.34 5.48 44.32 5.52L44.32 5.52L44.03 5.98L44.03 5.98Q43.99 6.04 43.93 6.04L43.93 6.04L43.93 6.04Q43.89 6.04 43.82 6.00L43.82 6.00L43.82 6.00Q43.75 5.95 43.64 5.90L43.64 5.90L43.64 5.90Q43.53 5.84 43.39 5.79L43.39 5.79L43.39 5.79Q43.26 5.75 43.09 5.75ZM49.71 7.82L50.77 10.43L51.73 7.93L51.73 7.93Q51.76 7.84 51.79 7.77L51.79 7.77L51.79 7.77Q51.82 7.70 51.86 7.64L51.86 7.64L51.86 7.64Q51.90 7.59 51.97 7.56L51.97 7.56L51.97 7.56Q52.04 7.53 52.14 7.53L52.14 7.53L52.94 7.53L52.94 7.53Q53.14 7.53 53.14 7.64L53.14 7.64L53.14 7.64Q53.14 7.72 53.07 7.89L53.07 7.89L49.21 17.00L49.21 17.00Q49.16 17.09 49.14 17.15L49.14 17.15L49.14 17.15Q49.11 17.22 49.07 17.26L49.07 17.26L49.07 17.26Q49.03 17.30 48.98 17.32L48.98 17.32L48.98 17.32Q48.92 17.34 48.83 17.34L48.83 17.34L47.95 17.34L47.95 17.34Q47.74 17.34 47.74 17.22L47.74 17.22L47.74 17.22Q47.74 17.14 47.82 16.97L47.82 16.97L48.84 14.79L45.36 8.10L45.36 8.10Q45.32 8.03 45.31 7.96L45.31 7.96L45.31 7.96Q45.29 7.90 45.29 7.84L45.29 7.84L45.29 7.84Q45.29 7.67 45.42 7.60L45.42 7.60L45.42 7.60Q45.55 7.53 45.69 7.53L45.69 7.53L49.16 7.53L49.16 7.53Q49.40 7.53 49.54 7.63L49.54 7.63L49.54 7.63Q49.67 7.72 49.71 7.82L49.71 7.82ZM53.76 13.58L53.76 8.48L53.76 8.48Q53.76 8.24 53.81 8.06L53.81 8.06L53.81 8.06Q53.85 7.88 53.96 7.77L53.96 7.77L53.96 7.77Q54.08 7.65 54.28 7.59L54.28 7.59L54.28 7.59Q54.49 7.53 54.82 7.53L54.82 7.53L57.61 7.53L57.61 7.53Q57.92 7.53 58.13 7.59L58.13 7.59L58.13 7.59Q58.34 7.65 58.44 7.80L58.44 7.80L58.44 7.80Q58.53 7.73 58.66 7.66L58.66 7.66L58.66 7.66Q58.79 7.59 58.94 7.53L58.94 7.53L58.94 7.53Q59.10 7.46 59.27 7.43L59.27 7.43L59.27 7.43Q59.45 7.39 59.63 7.39L59.63 7.39L59.63 7.39Q60.26 7.39 60.62 7.81L60.62 7.81L60.62 7.81Q60.72 7.74 60.83 7.67L60.83 7.67L60.83 7.67Q60.96 7.59 61.13 7.53L61.13 7.53L61.13 7.53Q61.29 7.46 61.48 7.43L61.48 7.43L61.48 7.43Q61.66 7.39 61.84 7.39L61.84 7.39L61.84 7.39Q62.50 7.39 62.87 7.84L62.87 7.84L62.87 7.84Q63.23 8.29 63.23 9.17L63.23 9.17L63.23 14.21L63.23 14.21Q63.23 14.32 63.20 14.39L63.20 14.39L63.20 14.39Q63.17 14.45 63.12 14.48L63.12 14.48L63.12 14.48Q63.08 14.51 63.01 14.52L63.01 14.52L63.01 14.52Q62.95 14.53 62.89 14.53L62.89 14.53L62.46 14.53L62.46 14.53Q62.28 14.53 62.23 14.42L62.23 14.42L62.23 14.42Q62.18 14.32 62.18 14.21L62.18 14.21L62.18 9.10L62.18 9.10Q62.18 8.71 62.04 8.50L62.04 8.50L62.04 8.50Q61.90 8.30 61.59 8.30L61.59 8.30L61.59 8.30Q61.51 8.30 61.42 8.33L61.42 8.33L61.42 8.33Q61.33 8.36 61.24 8.41L61.24 8.41L61.24 8.41Q61.15 8.46 61.08 8.51L61.08 8.51L61.08 8.51Q61.02 8.56 60.97 8.60L60.97 8.60L60.97 8.60Q61.02 8.86 61.02 9.17L61.02 9.17L61.02 14.21L61.02 14.21Q61.02 14.32 60.99 14.39L60.99 14.39L60.99 14.39Q60.96 14.45 60.91 14.48L60.91 14.48L60.91 14.48Q60.87 14.51 60.81 14.52L60.81 14.52L60.81 14.52Q60.74 14.53 60.68 14.53L60.68 14.53L60.25 14.53L60.25 14.53Q60.07 14.53 60.02 14.42L60.02 14.42L60.02 14.42Q59.96 14.32 59.96 14.21L59.96 14.21L59.96 9.10L59.96 9.10Q59.96 8.71 59.82 8.50L59.82 8.50L59.82 8.50Q59.68 8.30 59.38 8.30L59.38 8.30L59.38 8.30Q59.22 8.30 59.06 8.38L59.06 8.38L59.06 8.38Q58.90 8.47 58.80 8.57L58.80 8.57L58.80 13.57L58.80 13.57Q58.80 13.81 58.76 13.99L58.76 13.99L58.76 13.99Q58.72 14.16 58.60 14.28L58.60 14.28L58.60 14.28Q58.49 14.40 58.28 14.46L58.28 14.46L58.28 14.46Q58.08 14.53 57.75 14.53L57.75 14.53L54.82 14.53L54.82 14.53Q54.49 14.53 54.28 14.46L54.28 14.46L54.28 14.46Q54.08 14.40 53.96 14.29L53.96 14.29L53.96 14.29Q53.85 14.17 53.81 13.99L53.81 13.99L53.81 13.99Q53.76 13.82 53.76 13.58L53.76 13.58Z"></path></g><!----><g data-v-423bf9ae="" id="399dde50-81ec-4e9a-af31-4a86770a92f2" transform="matrix(1.8571249550536113,0,0,1.8571249550536113,-8.85624775268056,-47.08725219513386)" stroke="none" fill="white"><path d="M5 43.077h3.462v13.846H5zM11.923 32.692h3.462v34.615h-3.462zM18.846 25.769h6.924v48.462h-6.924zM29.23 46.539h41.539v6.923H29.23zM91.538 43.077H95v13.846h-3.462zM84.615 32.692h3.462v34.615h-3.462zM74.23 25.769h6.924v48.462H74.23z"></path></g><!----></svg>